<svg width="24" height="24" viewBox="0 0 24 24" fill="none" xmlns="http://www.w3.org/2000/svg">
  <path d="M8.98 5.19a2.6 2.6 0 0 0-3.67 0L.76 9.74a2.6 2.6 0 1 0 3.68 3.67l2.72-2.73a1.7 1.7 0 0 1 2.4 0l2.45 2.44 2.46-2.44a1.7 1.7 0 0 1 2.4 0l2.72 2.73a2.6 2.6 0 1 0 3.68-3.67l-4.55-4.55a2.6 2.6 0 0 0-3.68 0L12 7.91 8.98 5.19Z" fill="#00D6A4"/>
  <path d="M17.5 10.58a1.7 1.7 0 0 1 2.4 0l2.72 2.72a2.6 2.6 0 1 1-3.68 3.68l-2.45-2.46-2.46 2.46a2.6 2.6 0 0 1-3.67 0L7.9 14.52l2.45-2.45a1.7 1.7 0 0 1 2.4 0L15.2 14.5l2.3-2.3Z" fill="#7EF0D3"/>
</svg>
